<mxfile host="65bd71144e">
    <diagram id="E_8y9_jr0o8Mdj2b_78k" name="PÃ¡gina-1">
        <mxGraphModel dx="1489" dy="411" grid="1" gridSize="10" guides="1" tooltips="1" connect="1" arrows="1" fold="1" page="1" pageScale="1" pageWidth="827" pageHeight="1169" math="0" shadow="0">
            <root>
                <mxCell id="0"/>
                <mxCell id="1" parent="0"/>
                <mxCell id="5" value="" style="edgeStyle=none;html=1;" edge="1" parent="1" source="2" target="3">
                    <mxGeometry relative="1" as="geometry"/>
                </mxCell>
                <mxCell id="2" value="INICIO" style="ellipse;whiteSpace=wrap;html=1;fillColor=#60a917;fontColor=#ffffff;strokeColor=#2D7600;" vertex="1" parent="1">
                    <mxGeometry x="290" y="30" width="120" height="80" as="geometry"/>
                </mxCell>
                <mxCell id="6" value="" style="edgeStyle=none;html=1;" edge="1" parent="1" source="3" target="4">
                    <mxGeometry relative="1" as="geometry"/>
                </mxCell>
                <mxCell id="3" value="p_ganancias" style="shape=parallelogram;perimeter=parallelogramPerimeter;whiteSpace=wrap;html=1;fixedSize=1;fillColor=#1ba1e2;fontColor=#ffffff;strokeColor=#006EAF;" vertex="1" parent="1">
                    <mxGeometry x="290" y="160" width="120" height="60" as="geometry"/>
                </mxCell>
                <mxCell id="4" value="ganancia=&lt;br&gt;p_compra&amp;lt;3000" style="rhombus;whiteSpace=wrap;html=1;fillColor=#0050ef;fontColor=#ffffff;strokeColor=#001DBC;" vertex="1" parent="1">
                    <mxGeometry x="300" y="270" width="100" height="90" as="geometry"/>
                </mxCell>
                <mxCell id="20" value="" style="edgeStyle=none;html=1;" edge="1" parent="1" source="7" target="19">
                    <mxGeometry relative="1" as="geometry"/>
                </mxCell>
                <mxCell id="7" value="ganacio&lt;br&gt;p_venta=p_compra+&lt;br&gt;ganancia" style="rounded=0;whiteSpace=wrap;html=1;fillColor=#6a00ff;fontColor=#ffffff;strokeColor=#3700CC;" vertex="1" parent="1">
                    <mxGeometry x="500" y="350" width="120" height="60" as="geometry"/>
                </mxCell>
                <mxCell id="18" value="" style="edgeStyle=none;html=1;" edge="1" parent="1" source="8" target="16">
                    <mxGeometry relative="1" as="geometry"/>
                </mxCell>
                <mxCell id="8" value="ganancia=500&lt;br&gt;p_venta=p_compra +&amp;nbsp;&lt;br&gt;ganancia" style="rounded=0;whiteSpace=wrap;html=1;fillColor=#008a00;fontColor=#ffffff;strokeColor=#005700;" vertex="1" parent="1">
                    <mxGeometry x="280" y="490" width="120" height="60" as="geometry"/>
                </mxCell>
                <mxCell id="9" value="p&amp;lt;=6000" style="rhombus;whiteSpace=wrap;html=1;fillColor=#d80073;fontColor=#ffffff;strokeColor=#A50040;" vertex="1" parent="1">
                    <mxGeometry x="110" y="370" width="120" height="100" as="geometry"/>
                </mxCell>
                <mxCell id="10" value="" style="endArrow=classic;html=1;entryX=0.5;entryY=0;entryDx=0;entryDy=0;exitX=1;exitY=0.5;exitDx=0;exitDy=0;" edge="1" parent="1" source="4" target="7">
                    <mxGeometry width="50" height="50" relative="1" as="geometry">
                        <mxPoint x="320" y="470" as="sourcePoint"/>
                        <mxPoint x="370" y="420" as="targetPoint"/>
                        <Array as="points">
                            <mxPoint x="560" y="315"/>
                        </Array>
                    </mxGeometry>
                </mxCell>
                <mxCell id="11" value="" style="endArrow=classic;html=1;entryX=0.5;entryY=0;entryDx=0;entryDy=0;" edge="1" parent="1" source="4" target="9">
                    <mxGeometry width="50" height="50" relative="1" as="geometry">
                        <mxPoint x="320" y="470" as="sourcePoint"/>
                        <mxPoint x="370" y="420" as="targetPoint"/>
                        <Array as="points">
                            <mxPoint x="170" y="315"/>
                        </Array>
                    </mxGeometry>
                </mxCell>
                <mxCell id="12" value="" style="endArrow=classic;html=1;exitX=0.95;exitY=0.47;exitDx=0;exitDy=0;exitPerimeter=0;entryX=0.442;entryY=0;entryDx=0;entryDy=0;entryPerimeter=0;" edge="1" parent="1" source="9" target="8">
                    <mxGeometry width="50" height="50" relative="1" as="geometry">
                        <mxPoint x="320" y="470" as="sourcePoint"/>
                        <mxPoint x="370" y="420" as="targetPoint"/>
                        <Array as="points">
                            <mxPoint x="333" y="417"/>
                        </Array>
                    </mxGeometry>
                </mxCell>
                <mxCell id="17" value="" style="edgeStyle=none;html=1;" edge="1" parent="1" source="13" target="15">
                    <mxGeometry relative="1" as="geometry"/>
                </mxCell>
                <mxCell id="13" value="p_compra&amp;gt;6000.ganancia=&lt;br&gt;(p_compra*0.25)&lt;br&gt;p_venta=p_compra+ganancia" style="rounded=0;whiteSpace=wrap;html=1;fillColor=#a20025;fontColor=#ffffff;strokeColor=#6F0000;" vertex="1" parent="1">
                    <mxGeometry x="-100" y="490" width="190" height="65" as="geometry"/>
                </mxCell>
                <mxCell id="14" value="" style="endArrow=classic;html=1;entryX=0.408;entryY=-0.077;entryDx=0;entryDy=0;entryPerimeter=0;exitX=0;exitY=0.5;exitDx=0;exitDy=0;" edge="1" parent="1" source="9" target="13">
                    <mxGeometry width="50" height="50" relative="1" as="geometry">
                        <mxPoint x="320" y="470" as="sourcePoint"/>
                        <mxPoint x="370" y="420" as="targetPoint"/>
                        <Array as="points">
                            <mxPoint x="-22" y="420"/>
                        </Array>
                    </mxGeometry>
                </mxCell>
                <mxCell id="15" value="p_venta" style="shape=document;whiteSpace=wrap;html=1;boundedLbl=1;fillColor=#f0a30a;fontColor=#000000;strokeColor=#BD7000;" vertex="1" parent="1">
                    <mxGeometry x="-65" y="600" width="120" height="80" as="geometry"/>
                </mxCell>
                <mxCell id="16" value="p_venta" style="shape=document;whiteSpace=wrap;html=1;boundedLbl=1;fillColor=#f0a30a;fontColor=#000000;strokeColor=#BD7000;" vertex="1" parent="1">
                    <mxGeometry x="280" y="590" width="120" height="80" as="geometry"/>
                </mxCell>
                <mxCell id="19" value="p_venta" style="shape=document;whiteSpace=wrap;html=1;boundedLbl=1;fillColor=#647687;fontColor=#ffffff;strokeColor=#314354;" vertex="1" parent="1">
                    <mxGeometry x="500" y="450" width="120" height="80" as="geometry"/>
                </mxCell>
                <mxCell id="21" value="FIN" style="ellipse;whiteSpace=wrap;html=1;fillColor=#76608a;fontColor=#ffffff;strokeColor=#432D57;" vertex="1" parent="1">
                    <mxGeometry x="140" y="830" width="120" height="80" as="geometry"/>
                </mxCell>
                <mxCell id="23" value="" style="endArrow=none;html=1;exitX=0.542;exitY=0.875;exitDx=0;exitDy=0;exitPerimeter=0;entryX=0.55;entryY=0.863;entryDx=0;entryDy=0;entryPerimeter=0;" edge="1" parent="1" source="15" target="19">
                    <mxGeometry width="50" height="50" relative="1" as="geometry">
                        <mxPoint x="60" y="750" as="sourcePoint"/>
                        <mxPoint x="490" y="700" as="targetPoint"/>
                        <Array as="points">
                            <mxPoint y="760"/>
                            <mxPoint x="570" y="760"/>
                        </Array>
                    </mxGeometry>
                </mxCell>
                <mxCell id="24" value="" style="endArrow=none;html=1;" edge="1" parent="1">
                    <mxGeometry width="50" height="50" relative="1" as="geometry">
                        <mxPoint x="200" y="760" as="sourcePoint"/>
                        <mxPoint x="200" y="830" as="targetPoint"/>
                    </mxGeometry>
                </mxCell>
                <mxCell id="27" value="" style="endArrow=none;html=1;entryX=0.608;entryY=0.75;entryDx=0;entryDy=0;entryPerimeter=0;" edge="1" parent="1" target="16">
                    <mxGeometry width="50" height="50" relative="1" as="geometry">
                        <mxPoint x="353" y="760" as="sourcePoint"/>
                        <mxPoint x="280" y="700" as="targetPoint"/>
                    </mxGeometry>
                </mxCell>
            </root>
        </mxGraphModel>
    </diagram>
</mxfile>